<?xml version="1.0" encoding="UTF-8"?><svg id="a" xmlns="http://www.w3.org/2000/svg" viewBox="0 0 107.948 85.497"><defs><style>.b{fill:#e79046;}.c{fill:none;}.d{fill:#231f20;}</style></defs><path class="d" d="m31.499,23.39v7.5h0c11.719,0,23.665,7.285,23.999,23.553-.339,16.27-12.285,23.554-24,23.554s-23.659-7.283-23.997-23.552c0-7.926,0-10.376-.002-20.752C3.04,38.749.154,45.665,0,54.443c.352,20.705,15.923,31.054,31.498,31.054s31.147-10.353,31.502-31.053c-.346-20.696-15.922-31.055-31.501-31.055Z"/><path class="d" d="m31.496,30.89l.003-7.5s-.003,0-.004,0c-5.754,0-11.508,1.415-16.495,4.243v9.142c4.52-3.998,10.538-5.885,16.496-5.886Z"/><path class="d" d="m15.156.892c.83-.175,2.14-.306,3.472-.306,1.899,0,3.123.327,4.04,1.07.764.567,1.223,1.44,1.223,2.598,0,1.42-.939,2.664-2.489,3.232v.043c1.397.35,3.035,1.507,3.035,3.69,0,1.267-.502,2.228-1.245,2.948-1.026.938-2.686,1.375-5.087,1.375-1.31,0-2.315-.087-2.948-.175V.892Zm1.899,6.026h1.725c2.009,0,3.188-1.048,3.188-2.467,0-1.726-1.31-2.402-3.232-2.402-.873,0-1.375.065-1.681.131v4.738Zm0,7.053c.371.065.917.088,1.594.088,1.965,0,3.777-.721,3.777-2.86,0-2.009-1.725-2.839-3.799-2.839h-1.572v5.611Z"/><path class="d" d="m26.926,8.141c0-1.244-.021-2.314-.087-3.297h1.681l.065,2.074h.087c.48-1.419,1.638-2.314,2.926-2.314.218,0,.372.021.546.065v1.812c-.196-.044-.393-.065-.655-.065-1.354,0-2.314,1.026-2.577,2.468-.044.262-.087.567-.087.895v5.634h-1.9v-7.271Z"/><path class="d" d="m34.919,10.478c.043,2.599,1.703,3.668,3.625,3.668,1.375,0,2.206-.24,2.926-.546l.328,1.376c-.677.306-1.834.655-3.516.655-3.253,0-5.197-2.141-5.197-5.328s1.878-5.699,4.957-5.699c3.45,0,4.367,3.035,4.367,4.979,0,.394-.043.699-.065.896h-7.424Zm5.633-1.376c.022-1.223-.502-3.122-2.664-3.122-1.943,0-2.795,1.79-2.948,3.122h5.612Z"/><path class="d" d="m52.324,15.02c-.502.262-1.616.611-3.035.611-3.188,0-5.263-2.162-5.263-5.394,0-3.254,2.228-5.612,5.677-5.612,1.136,0,2.14.284,2.664.546l-.437,1.485c-.458-.262-1.179-.502-2.227-.502-2.424,0-3.734,1.79-3.734,3.995,0,2.446,1.572,3.952,3.668,3.952,1.092,0,1.812-.283,2.358-.523l.327,1.441Z"/><path class="d" d="m56.474,9.692h.043c.263-.371.634-.83.939-1.201l3.101-3.646h2.314l-4.083,4.346,4.65,6.223h-2.336l-3.646-5.065-.982,1.092v3.974h-1.9V-.091h1.9v9.782Z"/><path class="d" d="m65.864,4.844l1.397,5.371c.306,1.18.59,2.271.786,3.363h.065c.24-1.07.59-2.205.938-3.341l1.726-5.394h1.615l1.638,5.284c.394,1.267.699,2.38.939,3.45h.065c.175-1.07.458-2.184.808-3.429l1.507-5.306h1.899l-3.406,10.568h-1.747l-1.615-5.044c-.371-1.179-.677-2.228-.939-3.472h-.043c-.263,1.267-.59,2.358-.961,3.493l-1.703,5.022h-1.747l-3.188-10.568h1.966Z"/><path class="d" d="m82.025,10.478c.044,2.599,1.703,3.668,3.625,3.668,1.375,0,2.205-.24,2.926-.546l.327,1.376c-.677.306-1.834.655-3.516.655-3.253,0-5.196-2.141-5.196-5.328s1.878-5.699,4.956-5.699c3.45,0,4.367,3.035,4.367,4.979,0,.394-.044.699-.065.896h-7.424Zm5.634-1.376c.021-1.223-.503-3.122-2.664-3.122-1.943,0-2.795,1.79-2.948,3.122h5.612Z"/><path class="d" d="m91.895,8.141c0-1.244-.021-2.314-.087-3.297h1.681l.066,2.074h.087c.48-1.419,1.638-2.314,2.926-2.314.219,0,.371.021.546.065v1.812c-.196-.044-.393-.065-.655-.065-1.354,0-2.314,1.026-2.576,2.468-.044.262-.088.567-.088.895v5.634h-1.899v-7.271Z"/><path class="d" d="m100.325,4.844l1.507,2.271c.393.59.721,1.136,1.069,1.726h.065c.35-.634.699-1.18,1.049-1.747l1.484-2.249h2.074l-3.603,5.109,3.712,5.459h-2.184l-1.55-2.38c-.415-.611-.765-1.201-1.136-1.834h-.044c-.35.633-.721,1.2-1.113,1.834l-1.528,2.38h-2.118l3.756-5.394-3.581-5.175h2.14Z"/><circle class="b" cx="31.5" cy="54.444" r="16.5"/><rect class="d" y=".556" width="7.5" height="53.888"/><path class="c" d="m7.5,33.694l.002,20.752-.002-20.752Z"/><path class="d" d="m77.962,33.867c0,10.376,0,12.826-.002,20.752-.206,9.914-4.723,16.627-10.871,20.36-.179.117-3.484,6.117-9.713,10.518.196-.019.392-.04.587-.062,14.136-1.624,27.177-11.89,27.498-30.818-.154-8.778-3.04-15.694-7.5-20.749Z"/><rect class="d" x="77.961" y="23.39" width="7.5" height="32.006" transform="translate(163.423 78.785) rotate(-180)"/><path class="d" d="m100.449,33.867c0,10.376,0,12.826-.002,20.752-.206,9.914-4.723,16.627-10.871,20.36-.179.117-3.484,6.117-9.713,10.518.196-.019.392-.04.587-.062,14.136-1.624,27.177-11.89,27.498-30.818-.154-8.778-3.04-15.694-7.5-20.749Z"/><rect class="d" x="100.448" y="23.39" width="7.5" height="32.006" transform="translate(208.396 78.785) rotate(-180)"/></svg>